<svg width="220" height="40" viewBox="0 0 220 40" xmlns="http://www.w3.org/2000/svg">
    <!-- Icon Group -->
    <!-- Moved up by 2 units (y=2 instead of 4) to align center with text -->
    <g transform="translate(12, 2)">
        <!-- Ring (Back Segment) -->
        <path d="M 9 25 A 12 4 -30 0 1 31 13" fill="none" stroke="#93c5fd" stroke-width="2" stroke-linecap="round" />

        <!-- Stacked Cylinders -->
        <!-- 4th (Bottom) -->
        <path d="M12.5 22 V24 C12.5 25.5 15.8 26.5 20 26.5 S27.5 25.5 27.5 24 V22" fill="#1e3a8a" />
        <ellipse cx="20" cy="22" rx="7.5" ry="2.2" fill="#1d4ed8" />

        <!-- 3rd -->
        <path d="M12.5 19 V21 C12.5 22.5 15.8 23.5 20 23.5 S27.5 22.5 27.5 21 V19" fill="#1e40af" />
        <ellipse cx="20" cy="19" rx="7.5" ry="2.2" fill="#2563eb" />

        <!-- 2nd -->
        <path d="M12.5 16 V18 C12.5 19.5 15.8 20.5 20 20.5 S27.5 19.5 27.5 18 V16" fill="#2563eb" />
        <ellipse cx="20" cy="16" rx="7.5" ry="2.2" fill="#3b82f6" />

        <!-- 1st (Top) -->
        <path d="M12.5 13 V15 C12.5 16.5 15.8 17.5 20 17.5 S27.5 16.5 27.5 15 V13" fill="#3b82f6" />
        <ellipse cx="20" cy="13" rx="7.5" ry="2.2" fill="#60a5fa" />

        <!-- Ring (Front Segment) -->
        <path d="M 31 13 A 12 4 -30 0 1 9 25" fill="none" stroke="#1d4ed8" stroke-width="2" stroke-linecap="round" />
    </g>

    <!-- Text -->
    <!-- Moved y down to 27 (from 28) to center visually with the 40px height -->
    <text x="52" y="27" font-family="'Inter', -apple-system, BlinkMacSystemFont, 'Segoe UI', Roboto, sans-serif" font-weight="700" font-size="22" fill="#2563eb">
        DataSurface
    </text>
</svg>